<?xml version="1.0" standalone="no"?>
<!DOCTYPE svg PUBLIC "-//W3C//DTD SVG 20010904//EN"
 "http://www.w3.org/TR/2001/REC-SVG-20010904/DTD/svg10.dtd">
<svg version="1.0" xmlns="http://www.w3.org/2000/svg"
 width="350.000000pt" height="350.000000pt" viewBox="0 0 350.000000 350.000000"
 preserveAspectRatio="xMidYMid meet">
<metadata>
Created by potrace 1.11, written by Peter Selinger 2001-2013
</metadata>
<g transform="translate(0.000000,350.000000) scale(0.100000,-0.100000)"
fill="#000000" stroke="none">
<path d="M1530 3463 c-429 -73 -735 -222 -1011 -493 -275 -270 -444 -602 -504
-990 -20 -136 -14 -431 13 -567 71 -352 235 -659 486 -908 307 -305 715 -486
1131 -502 130 -5 144 -4 193 17 66 28 144 111 166 176 31 92 16 163 -58 274
-102 152 -96 298 17 409 66 66 121 81 316 86 333 10 396 14 481 36 264 67 508
277 629 541 96 211 107 489 29 768 -109 396 -426 760 -838 965 -162 81 -391
155 -526 170 -32 4 -68 9 -79 12 -26 7 -413 12 -445 6z m-156 -397 c191 -89
231 -332 79 -479 -73 -72 -203 -97 -307 -60 -67 24 -138 90 -166 155 -33 75
-34 176 -1 240 78 153 245 214 395 144z m927 18 c129 -38 213 -150 212 -284 0
-166 -126 -290 -293 -290 -139 0 -250 83 -284 212 -42 162 49 318 214 369 41
12 93 10 151 -7z m-1549 -774 c51 -15 128 -70 161 -116 15 -22 33 -66 40 -103
29 -142 -33 -270 -161 -333 -54 -27 -162 -31 -225 -9 -97 33 -178 137 -193
248 -16 125 75 266 201 311 39 14 130 15 177 2z m2184 -23 c177 -90 214 -327
74 -467 -143 -143 -378 -106 -470 74 -75 148 -12 328 142 402 71 34 177 30
254 -9z"/>
</g>
</svg>
